<svg id="visual" viewBox="0 0 960 540" width="960" height="540" xmlns="http://www.w3.org/2000/svg" xmlns:xlink="http://www.w3.org/1999/xlink" version="1.1"><rect x="0" y="0" width="960" height="540" fill="#011627"></rect><defs><linearGradient id="grad1_0" x1="43.8%" y1="0%" x2="100%" y2="100%"><stop offset="14.444444444444446%" stop-color="#2ec4b6" stop-opacity="1"></stop><stop offset="85.55555555555554%" stop-color="#2ec4b6" stop-opacity="1"></stop></linearGradient></defs><defs><linearGradient id="grad1_1" x1="43.8%" y1="0%" x2="100%" y2="100%"><stop offset="14.444444444444446%" stop-color="#2ec4b6" stop-opacity="1"></stop><stop offset="85.55555555555554%" stop-color="#00667c" stop-opacity="1"></stop></linearGradient></defs><defs><linearGradient id="grad1_2" x1="43.8%" y1="0%" x2="100%" y2="100%"><stop offset="14.444444444444446%" stop-color="#011627" stop-opacity="1"></stop><stop offset="85.55555555555554%" stop-color="#00667c" stop-opacity="1"></stop></linearGradient></defs><defs><linearGradient id="grad2_0" x1="0%" y1="0%" x2="56.3%" y2="100%"><stop offset="14.444444444444446%" stop-color="#2ec4b6" stop-opacity="1"></stop><stop offset="85.55555555555554%" stop-color="#2ec4b6" stop-opacity="1"></stop></linearGradient></defs><defs><linearGradient id="grad2_1" x1="0%" y1="0%" x2="56.3%" y2="100%"><stop offset="14.444444444444446%" stop-color="#00667c" stop-opacity="1"></stop><stop offset="85.55555555555554%" stop-color="#2ec4b6" stop-opacity="1"></stop></linearGradient></defs><defs><linearGradient id="grad2_2" x1="0%" y1="0%" x2="56.3%" y2="100%"><stop offset="14.444444444444446%" stop-color="#00667c" stop-opacity="1"></stop><stop offset="85.55555555555554%" stop-color="#011627" stop-opacity="1"></stop></linearGradient></defs><g transform="translate(960, 0)"><path d="M0 405C-57.6 398.8 -115.1 392.5 -148.9 359.4C-182.6 326.2 -192.5 266.2 -231.9 231.9C-271.4 197.7 -340.4 189.3 -374.2 155C-407.9 120.6 -406.5 60.3 -405 0L0 0Z" fill="#003c53"></path><path d="M0 270C-38.4 265.8 -76.8 261.7 -99.2 239.6C-121.7 217.5 -128.3 177.4 -154.6 154.6C-180.9 131.8 -226.9 126.2 -249.4 103.3C-272 80.4 -271 40.2 -270 0L0 0Z" fill="#00949e"></path><path d="M0 135C-19.2 132.9 -38.4 130.8 -49.6 119.8C-60.9 108.7 -64.2 88.7 -77.3 77.3C-90.5 65.9 -113.5 63.1 -124.7 51.7C-136 40.2 -135.5 20.1 -135 0L0 0Z" fill="#2ec4b6"></path></g><g transform="translate(0, 540)"><path d="M0 -405C52.1 -389.8 104.2 -374.6 144.3 -348.3C184.4 -322 212.5 -284.6 253.1 -253.1C293.7 -221.7 346.8 -196.2 374.2 -155C401.6 -113.8 403.3 -56.9 405 0L0 0Z" fill="#003c53"></path><path d="M0 -270C34.7 -259.9 69.4 -249.7 96.2 -232.2C122.9 -214.7 141.7 -189.7 168.8 -168.8C195.8 -147.8 231.2 -130.8 249.4 -103.3C267.7 -75.9 268.9 -37.9 270 0L0 0Z" fill="#00949e"></path><path d="M0 -135C17.4 -129.9 34.7 -124.9 48.1 -116.1C61.5 -107.3 70.8 -94.9 84.4 -84.4C97.9 -73.9 115.6 -65.4 124.7 -51.7C133.9 -37.9 134.4 -19 135 0L0 0Z" fill="#2ec4b6"></path></g></svg>