<svg id="visual" viewBox="0 0 960 540" width="960" height="540" xmlns="http://www.w3.org/2000/svg" xmlns:xlink="http://www.w3.org/1999/xlink" version="1.1"><rect x="0" y="0" width="960" height="540" fill="#011627"></rect><defs><linearGradient id="grad1_0" x1="43.8%" y1="0%" x2="100%" y2="100%"><stop offset="14.444444444444446%" stop-color="#2ec4b6" stop-opacity="1"></stop><stop offset="85.55555555555554%" stop-color="#2ec4b6" stop-opacity="1"></stop></linearGradient></defs><defs><linearGradient id="grad1_1" x1="43.8%" y1="0%" x2="100%" y2="100%"><stop offset="14.444444444444446%" stop-color="#2ec4b6" stop-opacity="1"></stop><stop offset="85.55555555555554%" stop-color="#00667c" stop-opacity="1"></stop></linearGradient></defs><defs><linearGradient id="grad1_2" x1="43.8%" y1="0%" x2="100%" y2="100%"><stop offset="14.444444444444446%" stop-color="#011627" stop-opacity="1"></stop><stop offset="85.55555555555554%" stop-color="#00667c" stop-opacity="1"></stop></linearGradient></defs><defs><linearGradient id="grad2_0" x1="0%" y1="0%" x2="56.3%" y2="100%"><stop offset="14.444444444444446%" stop-color="#2ec4b6" stop-opacity="1"></stop><stop offset="85.55555555555554%" stop-color="#2ec4b6" stop-opacity="1"></stop></linearGradient></defs><defs><linearGradient id="grad2_1" x1="0%" y1="0%" x2="56.3%" y2="100%"><stop offset="14.444444444444446%" stop-color="#00667c" stop-opacity="1"></stop><stop offset="85.55555555555554%" stop-color="#2ec4b6" stop-opacity="1"></stop></linearGradient></defs><defs><linearGradient id="grad2_2" x1="0%" y1="0%" x2="56.3%" y2="100%"><stop offset="14.444444444444446%" stop-color="#00667c" stop-opacity="1"></stop><stop offset="85.55555555555554%" stop-color="#011627" stop-opacity="1"></stop></linearGradient></defs><g transform="translate(960, 0)"><path d="M0 405C-37.3 382.6 -74.6 360.1 -113.1 348.1C-151.6 336 -191.5 334.4 -232.2 319.6C-272.9 304.7 -314.5 276.8 -327.7 238.1C-340.8 199.3 -325.7 149.9 -333.8 108.5C-342 67 -373.5 33.5 -405 0L0 0Z" fill="#003c53"></path><path d="M0 270C-24.9 255 -49.7 240.1 -75.4 232.1C-101.1 224 -127.6 222.9 -154.8 213C-181.9 203.2 -209.6 184.5 -218.4 158.7C-227.2 132.9 -217.1 100 -222.5 72.3C-228 44.7 -249 22.3 -270 0L0 0Z" fill="#00949e"></path><path d="M0 135C-12.4 127.5 -24.9 120 -37.7 116C-50.5 112 -63.8 111.5 -77.4 106.5C-91 101.6 -104.8 92.3 -109.2 79.4C-113.6 66.4 -108.6 50 -111.3 36.2C-114 22.3 -124.5 11.2 -135 0L0 0Z" fill="#2ec4b6"></path></g><g transform="translate(0, 540)"><path d="M0 -405C36.7 -385.7 73.5 -366.4 116.2 -357.6C158.9 -348.8 207.6 -350.5 238.1 -327.7C268.5 -304.8 280.9 -257.6 304.2 -221C327.5 -184.5 361.8 -158.7 380.4 -123.6C399.1 -88.6 402 -44.3 405 0L0 0Z" fill="#003c53"></path><path d="M0 -270C24.5 -257.1 49 -244.3 77.5 -238.4C105.9 -232.5 138.4 -233.6 158.7 -218.4C179 -203.2 187.3 -171.7 202.8 -147.3C218.3 -123 241.2 -105.8 253.6 -82.4C266 -59 268 -29.5 270 0L0 0Z" fill="#00949e"></path><path d="M0 -135C12.2 -128.6 24.5 -122.1 38.7 -119.2C53 -116.3 69.2 -116.8 79.4 -109.2C89.5 -101.6 93.6 -85.9 101.4 -73.7C109.2 -61.5 120.6 -52.9 126.8 -41.2C133 -29.5 134 -14.8 135 0L0 0Z" fill="#2ec4b6"></path></g></svg>